<?xml version="1.0" encoding="utf-8"?>
<!-- Svg Vector Icons : http://www.onlinewebfonts.com/icon -->
<!DOCTYPE svg PUBLIC "-//W3C//DTD SVG 1.1//EN" "http://www.w3.org/Graphics/SVG/1.1/DTD/svg11.dtd">
<svg version="1.1" xmlns="http://www.w3.org/2000/svg" xmlns:xlink="http://www.w3.org/1999/xlink" x="0px" y="0px" viewBox="0 0 1000 1000" enable-background="new 0 0 1000 1000" xml:space="preserve">
<metadata> Svg Vector Icons : http://www.onlinewebfonts.com/icon </metadata>
<g><path d="M10,377.6V274.2h980v108.1C990,601.7,10,595.3,10,377.6z M371.3,186.1c0-8.9,7.2-16.1,16.1-16.1h225.3c8.9,0,16.1,7.2,16.1,16.1v40.6h71.4V154c0-27.9-22.7-50.6-50.6-50.6h-299c-27.9,0-50.6,22.7-50.6,50.6v72.7h71.4V186.1z M970.8,519.2v377.5H29.2V514.4C215.6,642.6,783,647.1,970.8,519.2z M553.9,661.7H446.1v42.6c0,29.8,24.2,53.9,53.9,53.9s53.9-24.2,53.9-53.9L553.9,661.7L553.9,661.7z"/></g>
</svg>