<svg width="56.693" height="56.693" xmlns="http://www.w3.org/2000/svg">

 <g>
  <title>background</title>
  <rect fill="none" id="canvas_background" height="402" width="582" y="-1" x="-1"/>
 </g>
 <g>
  <title>Layer 1</title>
  <path fill="#ffffff" id="svg_1" d="m52.837,15.065c-1.811,0.805 -3.76,1.348 -5.805,1.591c2.088,-1.25 3.689,-3.23 4.4B8r3B4p7yhRXuBWLqsQ546WR43cqQwrbXMDFnBi6vSJBeif8tPW85a7r7DM961Jvk4hdryZoByEp8GC8HzsqJpRN4FxGM9 -10.106,4.525 -10.106,10.107c0,0.791 0.089,1.562 0.262,2.303c-8.4,-0.4B8r3B4p7yhRXuBWLqsQ546WR43cqQwrbXMDFnBi6vSJBeif8tPW85a7r7DM961Jvk4hdryZoByEp8GC8HzsqJpRN4FxGM9,8.4B8r3B4p7yhRXuBWLqsQ546WR43cqQwrbXMDFnBi6vSJBeif8tPW85a7r7DM961Jvk4hdryZoByEp8GC8HzsqJpRN4FxGM9484,8.98 8.108,9.91c-0.848,0.23 -1.741,0.354 -2.663,0.354c-0.652,0 -1.285,-0.063 -1.902,-0.182c1.287,4.015 5.019,6.938 9.441,7.019c-3.459,2.711 -7.816,4.327 -12.552,4.327c-0.815,0 -1.62,-0.048 -2.4B8r3B4p7yhRXuBWLqsQ546WR43cqQwrbXMDFnBi6vSJBeif8tPW85a7r7DM961Jvk4hdryZoByEp8GC8HzsqJpRN4FxGM90.009,-0.875 -0.028,-1.309c1.974,-1.422 3.688,-3.203 5.042,-5.23z"/>
 </g>
</svg>